<mxfile host="app.diagrams.net" modified="2024-05-10T15:28:04.644Z" agent="Mozilla/5.0 (Windows NT 10.0; Win64; x64) AppleWebKit/537.36 (KHTML, like Gecko) Chrome/124.0.0.0 Safari/537.36" etag="u02Ax4CoXslFhSpvRRpg" version="24.3.1" type="github">
  <diagram name="Page-1" id="t5791eXkBowNAjBtWBt3">
    <mxGraphModel dx="3676" dy="1394" grid="1" gridSize="10" guides="1" tooltips="1" connect="1" arrows="1" fold="1" page="1" pageScale="1" pageWidth="850" pageHeight="1100" math="0" shadow="0">
      <root>
        <mxCell id="0" />
        <mxCell id="1" parent="0" />
        <mxCell id="cZts-r7HTPAZpy25Qah7-37" value="" style="rounded=1;whiteSpace=wrap;html=1;" vertex="1" parent="1">
          <mxGeometry x="100" y="740" width="730" height="570" as="geometry" />
        </mxCell>
        <mxCell id="cZts-r7HTPAZpy25Qah7-23" value="" style="rounded=1;whiteSpace=wrap;html=1;" vertex="1" parent="1">
          <mxGeometry x="-140" y="90" width="1270" height="610" as="geometry" />
        </mxCell>
        <mxCell id="w8yzD8-JY_WNigiYfDwi-17" value="" style="rounded=1;whiteSpace=wrap;html=1;" parent="1" vertex="1">
          <mxGeometry x="270" y="490" width="260" height="100" as="geometry" />
        </mxCell>
        <mxCell id="cZts-r7HTPAZpy25Qah7-11" style="edgeStyle=orthogonalEdgeStyle;rounded=0;orthogonalLoop=1;jettySize=auto;html=1;" edge="1" parent="1" source="w8yzD8-JY_WNigiYfDwi-4" target="w8yzD8-JY_WNigiYfDwi-18">
          <mxGeometry relative="1" as="geometry" />
        </mxCell>
        <mxCell id="w8yzD8-JY_WNigiYfDwi-4" value="" style="rounded=1;whiteSpace=wrap;html=1;" parent="1" vertex="1">
          <mxGeometry x="240" y="190" width="460" height="250" as="geometry" />
        </mxCell>
        <mxCell id="w8yzD8-JY_WNigiYfDwi-11" value="Mongo Db" style="shape=cylinder3;whiteSpace=wrap;html=1;boundedLbl=1;backgroundOutline=1;size=15;" parent="1" vertex="1">
          <mxGeometry x="580" y="500" width="60" height="80" as="geometry" />
        </mxCell>
        <mxCell id="w8yzD8-JY_WNigiYfDwi-12" style="edgeStyle=orthogonalEdgeStyle;rounded=0;orthogonalLoop=1;jettySize=auto;html=1;entryX=0.5;entryY=0;entryDx=0;entryDy=0;entryPerimeter=0;" parent="1" target="w8yzD8-JY_WNigiYfDwi-11" edge="1">
          <mxGeometry relative="1" as="geometry">
            <mxPoint x="610" y="400" as="sourcePoint" />
          </mxGeometry>
        </mxCell>
        <mxCell id="w8yzD8-JY_WNigiYfDwi-18" value="AWS KMS" style="rounded=1;whiteSpace=wrap;html=1;" parent="1" vertex="1">
          <mxGeometry x="420" y="510" width="100" height="50" as="geometry" />
        </mxCell>
        <mxCell id="cZts-r7HTPAZpy25Qah7-13" style="edgeStyle=orthogonalEdgeStyle;rounded=0;orthogonalLoop=1;jettySize=auto;html=1;entryX=0.5;entryY=1;entryDx=0;entryDy=0;" edge="1" parent="1" source="w8yzD8-JY_WNigiYfDwi-19">
          <mxGeometry relative="1" as="geometry">
            <mxPoint x="340" y="400" as="targetPoint" />
          </mxGeometry>
        </mxCell>
        <mxCell id="w8yzD8-JY_WNigiYfDwi-19" value="Cloud watch Schudler" style="rounded=1;whiteSpace=wrap;html=1;" parent="1" vertex="1">
          <mxGeometry x="290" y="510" width="100" height="50" as="geometry" />
        </mxCell>
        <mxCell id="cZts-r7HTPAZpy25Qah7-1" value="" style="rounded=1;whiteSpace=wrap;html=1;" vertex="1" parent="1">
          <mxGeometry x="-50" y="190" width="180" height="250" as="geometry" />
        </mxCell>
        <mxCell id="cZts-r7HTPAZpy25Qah7-6" style="edgeStyle=orthogonalEdgeStyle;rounded=0;orthogonalLoop=1;jettySize=auto;html=1;entryX=0;entryY=0.5;entryDx=0;entryDy=0;" edge="1" parent="1" source="cZts-r7HTPAZpy25Qah7-2" target="w8yzD8-JY_WNigiYfDwi-4">
          <mxGeometry relative="1" as="geometry" />
        </mxCell>
        <mxCell id="cZts-r7HTPAZpy25Qah7-2" value="SSS SDK" style="rounded=1;whiteSpace=wrap;html=1;" vertex="1" parent="1">
          <mxGeometry x="-20" y="285" width="120" height="60" as="geometry" />
        </mxCell>
        <mxCell id="cZts-r7HTPAZpy25Qah7-3" value="Sender" style="text;html=1;align=center;verticalAlign=middle;whiteSpace=wrap;rounded=0;" vertex="1" parent="1">
          <mxGeometry x="10" y="210" width="60" height="30" as="geometry" />
        </mxCell>
        <mxCell id="cZts-r7HTPAZpy25Qah7-4" value="Secure Storage Service&amp;nbsp;" style="text;html=1;align=center;verticalAlign=middle;whiteSpace=wrap;rounded=0;" vertex="1" parent="1">
          <mxGeometry x="340" y="210" width="170" height="30" as="geometry" />
        </mxCell>
        <mxCell id="cZts-r7HTPAZpy25Qah7-7" value="" style="rounded=1;whiteSpace=wrap;html=1;" vertex="1" parent="1">
          <mxGeometry x="780" y="190" width="180" height="250" as="geometry" />
        </mxCell>
        <mxCell id="cZts-r7HTPAZpy25Qah7-10" style="edgeStyle=orthogonalEdgeStyle;rounded=0;orthogonalLoop=1;jettySize=auto;html=1;entryX=1;entryY=0.5;entryDx=0;entryDy=0;" edge="1" parent="1" source="cZts-r7HTPAZpy25Qah7-8" target="w8yzD8-JY_WNigiYfDwi-4">
          <mxGeometry relative="1" as="geometry" />
        </mxCell>
        <mxCell id="cZts-r7HTPAZpy25Qah7-8" value="SSS SDK" style="rounded=1;whiteSpace=wrap;html=1;" vertex="1" parent="1">
          <mxGeometry x="810" y="285" width="120" height="60" as="geometry" />
        </mxCell>
        <mxCell id="cZts-r7HTPAZpy25Qah7-9" value="Receiver" style="text;html=1;align=center;verticalAlign=middle;whiteSpace=wrap;rounded=0;" vertex="1" parent="1">
          <mxGeometry x="840" y="210" width="60" height="30" as="geometry" />
        </mxCell>
        <mxCell id="cZts-r7HTPAZpy25Qah7-12" style="edgeStyle=orthogonalEdgeStyle;rounded=0;orthogonalLoop=1;jettySize=auto;html=1;exitX=0.5;exitY=1;exitDx=0;exitDy=0;" edge="1" parent="1" source="w8yzD8-JY_WNigiYfDwi-18" target="w8yzD8-JY_WNigiYfDwi-18">
          <mxGeometry relative="1" as="geometry" />
        </mxCell>
        <mxCell id="cZts-r7HTPAZpy25Qah7-14" value="Service Whitelisting Component" style="shape=module;align=left;spacingLeft=20;align=center;verticalAlign=top;whiteSpace=wrap;html=1;" vertex="1" parent="1">
          <mxGeometry x="410" y="345" width="130" height="55" as="geometry" />
        </mxCell>
        <mxCell id="cZts-r7HTPAZpy25Qah7-15" value="Data manager Library&amp;nbsp;" style="shape=module;align=left;spacingLeft=20;align=center;verticalAlign=top;whiteSpace=wrap;html=1;" vertex="1" parent="1">
          <mxGeometry x="545" y="345" width="130" height="55" as="geometry" />
        </mxCell>
        <mxCell id="cZts-r7HTPAZpy25Qah7-17" value="Encryption Component" style="shape=module;align=left;spacingLeft=20;align=center;verticalAlign=top;whiteSpace=wrap;html=1;" vertex="1" parent="1">
          <mxGeometry x="275" y="260" width="130" height="55" as="geometry" />
        </mxCell>
        <mxCell id="cZts-r7HTPAZpy25Qah7-18" value="Key Generator Component" style="shape=module;align=left;spacingLeft=20;align=center;verticalAlign=top;whiteSpace=wrap;html=1;" vertex="1" parent="1">
          <mxGeometry x="275" y="342.5" width="130" height="55" as="geometry" />
        </mxCell>
        <mxCell id="cZts-r7HTPAZpy25Qah7-24" value="&lt;font style=&quot;font-size: 18px;&quot;&gt;Secure Storage Service&amp;nbsp;&lt;/font&gt;" style="text;html=1;align=center;verticalAlign=middle;whiteSpace=wrap;rounded=0;fontStyle=1" vertex="1" parent="1">
          <mxGeometry x="730" y="525" width="220" height="30" as="geometry" />
        </mxCell>
        <mxCell id="cZts-r7HTPAZpy25Qah7-26" value="" style="rounded=1;whiteSpace=wrap;html=1;" vertex="1" parent="1">
          <mxGeometry x="160" y="1100" width="350" height="100" as="geometry" />
        </mxCell>
        <mxCell id="cZts-r7HTPAZpy25Qah7-27" value="" style="rounded=1;whiteSpace=wrap;html=1;" vertex="1" parent="1">
          <mxGeometry x="160" y="900" width="520" height="150" as="geometry" />
        </mxCell>
        <mxCell id="cZts-r7HTPAZpy25Qah7-28" value="Mongo Db" style="shape=cylinder3;whiteSpace=wrap;html=1;boundedLbl=1;backgroundOutline=1;size=15;" vertex="1" parent="1">
          <mxGeometry x="555" y="1120" width="60" height="80" as="geometry" />
        </mxCell>
        <mxCell id="cZts-r7HTPAZpy25Qah7-34" style="edgeStyle=orthogonalEdgeStyle;rounded=0;orthogonalLoop=1;jettySize=auto;html=1;entryX=0.5;entryY=1;entryDx=0;entryDy=0;" edge="1" parent="1" source="cZts-r7HTPAZpy25Qah7-30" target="cZts-r7HTPAZpy25Qah7-33">
          <mxGeometry relative="1" as="geometry" />
        </mxCell>
        <mxCell id="cZts-r7HTPAZpy25Qah7-30" value="Cloud watch Schudler" style="rounded=1;whiteSpace=wrap;html=1;" vertex="1" parent="1">
          <mxGeometry x="355" y="1120" width="100" height="50" as="geometry" />
        </mxCell>
        <mxCell id="cZts-r7HTPAZpy25Qah7-31" value="Secure Storage Service&amp;nbsp;" style="text;html=1;align=center;verticalAlign=middle;whiteSpace=wrap;rounded=0;" vertex="1" parent="1">
          <mxGeometry x="480" y="910" width="170" height="30" as="geometry" />
        </mxCell>
        <mxCell id="cZts-r7HTPAZpy25Qah7-32" value="Data manager Library&amp;nbsp;" style="shape=module;align=left;spacingLeft=20;align=center;verticalAlign=top;whiteSpace=wrap;html=1;" vertex="1" parent="1">
          <mxGeometry x="520" y="960" width="130" height="55" as="geometry" />
        </mxCell>
        <mxCell id="cZts-r7HTPAZpy25Qah7-35" style="edgeStyle=orthogonalEdgeStyle;rounded=0;orthogonalLoop=1;jettySize=auto;html=1;" edge="1" parent="1" source="cZts-r7HTPAZpy25Qah7-33" target="cZts-r7HTPAZpy25Qah7-32">
          <mxGeometry relative="1" as="geometry" />
        </mxCell>
        <mxCell id="cZts-r7HTPAZpy25Qah7-122" style="edgeStyle=orthogonalEdgeStyle;rounded=0;orthogonalLoop=1;jettySize=auto;html=1;entryX=1;entryY=0.5;entryDx=0;entryDy=0;" edge="1" parent="1" source="cZts-r7HTPAZpy25Qah7-33" target="cZts-r7HTPAZpy25Qah7-42">
          <mxGeometry relative="1" as="geometry" />
        </mxCell>
        <mxCell id="cZts-r7HTPAZpy25Qah7-33" value="Key Generator Component" style="shape=module;align=left;spacingLeft=20;align=center;verticalAlign=top;whiteSpace=wrap;html=1;" vertex="1" parent="1">
          <mxGeometry x="340" y="960" width="130" height="55" as="geometry" />
        </mxCell>
        <mxCell id="cZts-r7HTPAZpy25Qah7-36" style="edgeStyle=orthogonalEdgeStyle;rounded=0;orthogonalLoop=1;jettySize=auto;html=1;entryX=0.5;entryY=0;entryDx=0;entryDy=0;entryPerimeter=0;" edge="1" parent="1" source="cZts-r7HTPAZpy25Qah7-32" target="cZts-r7HTPAZpy25Qah7-28">
          <mxGeometry relative="1" as="geometry" />
        </mxCell>
        <mxCell id="cZts-r7HTPAZpy25Qah7-38" value="&lt;span style=&quot;font-size: 18px; font-weight: 700;&quot;&gt;Secure Storage Service Key Rotation&lt;/span&gt;" style="text;html=1;align=center;verticalAlign=middle;whiteSpace=wrap;rounded=0;" vertex="1" parent="1">
          <mxGeometry x="285" y="850" width="330" height="30" as="geometry" />
        </mxCell>
        <mxCell id="cZts-r7HTPAZpy25Qah7-40" value="AWS KMS" style="rounded=1;whiteSpace=wrap;html=1;" vertex="1" parent="1">
          <mxGeometry x="190" y="1120" width="100" height="50" as="geometry" />
        </mxCell>
        <mxCell id="cZts-r7HTPAZpy25Qah7-43" style="edgeStyle=orthogonalEdgeStyle;rounded=0;orthogonalLoop=1;jettySize=auto;html=1;" edge="1" parent="1" source="cZts-r7HTPAZpy25Qah7-42" target="cZts-r7HTPAZpy25Qah7-40">
          <mxGeometry relative="1" as="geometry" />
        </mxCell>
        <mxCell id="cZts-r7HTPAZpy25Qah7-42" value="Environment Variable&amp;nbsp;" style="rounded=1;whiteSpace=wrap;html=1;" vertex="1" parent="1">
          <mxGeometry x="190" y="962.5" width="100" height="50" as="geometry" />
        </mxCell>
        <mxCell id="cZts-r7HTPAZpy25Qah7-44" value="" style="rounded=1;whiteSpace=wrap;html=1;" vertex="1" parent="1">
          <mxGeometry x="100" y="1440" width="710" height="520" as="geometry" />
        </mxCell>
        <mxCell id="cZts-r7HTPAZpy25Qah7-47" value="" style="rounded=1;whiteSpace=wrap;html=1;" vertex="1" parent="1">
          <mxGeometry x="180" y="1590" width="550" height="200" as="geometry" />
        </mxCell>
        <mxCell id="cZts-r7HTPAZpy25Qah7-48" value="Mongo Db" style="shape=cylinder3;whiteSpace=wrap;html=1;boundedLbl=1;backgroundOutline=1;size=15;" vertex="1" parent="1">
          <mxGeometry x="610" y="1850" width="60" height="80" as="geometry" />
        </mxCell>
        <mxCell id="cZts-r7HTPAZpy25Qah7-49" style="edgeStyle=orthogonalEdgeStyle;rounded=0;orthogonalLoop=1;jettySize=auto;html=1;entryX=0.5;entryY=0;entryDx=0;entryDy=0;entryPerimeter=0;" edge="1" parent="1" target="cZts-r7HTPAZpy25Qah7-48">
          <mxGeometry relative="1" as="geometry">
            <mxPoint x="640" y="1750" as="sourcePoint" />
          </mxGeometry>
        </mxCell>
        <mxCell id="cZts-r7HTPAZpy25Qah7-57" value="Secure Storage Service&amp;nbsp;" style="text;html=1;align=center;verticalAlign=middle;whiteSpace=wrap;rounded=0;" vertex="1" parent="1">
          <mxGeometry x="555" y="1635" width="170" height="30" as="geometry" />
        </mxCell>
        <mxCell id="cZts-r7HTPAZpy25Qah7-62" style="edgeStyle=orthogonalEdgeStyle;rounded=0;orthogonalLoop=1;jettySize=auto;html=1;exitX=0.5;exitY=1;exitDx=0;exitDy=0;" edge="1" parent="1">
          <mxGeometry relative="1" as="geometry">
            <mxPoint x="500" y="1910" as="sourcePoint" />
            <mxPoint x="500" y="1910" as="targetPoint" />
          </mxGeometry>
        </mxCell>
        <mxCell id="cZts-r7HTPAZpy25Qah7-63" value="Service Whitelisting Component" style="shape=module;align=left;spacingLeft=20;align=center;verticalAlign=top;whiteSpace=wrap;html=1;" vertex="1" parent="1">
          <mxGeometry x="360" y="1695" width="130" height="55" as="geometry" />
        </mxCell>
        <mxCell id="cZts-r7HTPAZpy25Qah7-64" value="Data manager Library&amp;nbsp;" style="shape=module;align=left;spacingLeft=20;align=center;verticalAlign=top;whiteSpace=wrap;html=1;" vertex="1" parent="1">
          <mxGeometry x="580" y="1695" width="130" height="55" as="geometry" />
        </mxCell>
        <mxCell id="cZts-r7HTPAZpy25Qah7-68" value="&lt;font style=&quot;font-size: 18px;&quot;&gt;Secure Storage Service Whitelist&amp;nbsp;&lt;/font&gt;" style="text;html=1;align=center;verticalAlign=middle;whiteSpace=wrap;rounded=0;fontStyle=1" vertex="1" parent="1">
          <mxGeometry x="385" y="1530" width="295" height="30" as="geometry" />
        </mxCell>
        <mxCell id="cZts-r7HTPAZpy25Qah7-70" style="edgeStyle=orthogonalEdgeStyle;rounded=0;orthogonalLoop=1;jettySize=auto;html=1;entryX=0.1;entryY=0.491;entryDx=0;entryDy=0;entryPerimeter=0;" edge="1" parent="1" source="cZts-r7HTPAZpy25Qah7-63" target="cZts-r7HTPAZpy25Qah7-64">
          <mxGeometry relative="1" as="geometry" />
        </mxCell>
        <mxCell id="cZts-r7HTPAZpy25Qah7-95" value="" style="rounded=1;whiteSpace=wrap;html=1;" vertex="1" parent="1">
          <mxGeometry x="-50" y="2110" width="1180" height="520" as="geometry" />
        </mxCell>
        <mxCell id="cZts-r7HTPAZpy25Qah7-98" value="" style="rounded=1;whiteSpace=wrap;html=1;" vertex="1" parent="1">
          <mxGeometry x="250" y="2210" width="500" height="250" as="geometry" />
        </mxCell>
        <mxCell id="cZts-r7HTPAZpy25Qah7-99" value="Mongo Db" style="shape=cylinder3;whiteSpace=wrap;html=1;boundedLbl=1;backgroundOutline=1;size=15;" vertex="1" parent="1">
          <mxGeometry x="647.5" y="2520" width="60" height="80" as="geometry" />
        </mxCell>
        <mxCell id="cZts-r7HTPAZpy25Qah7-100" style="edgeStyle=orthogonalEdgeStyle;rounded=0;orthogonalLoop=1;jettySize=auto;html=1;entryX=0.5;entryY=0;entryDx=0;entryDy=0;entryPerimeter=0;" edge="1" parent="1" target="cZts-r7HTPAZpy25Qah7-99">
          <mxGeometry relative="1" as="geometry">
            <mxPoint x="717.5" y="2420" as="sourcePoint" />
          </mxGeometry>
        </mxCell>
        <mxCell id="cZts-r7HTPAZpy25Qah7-104" value="" style="rounded=1;whiteSpace=wrap;html=1;" vertex="1" parent="1">
          <mxGeometry y="2210" width="180" height="250" as="geometry" />
        </mxCell>
        <mxCell id="cZts-r7HTPAZpy25Qah7-105" style="edgeStyle=orthogonalEdgeStyle;rounded=0;orthogonalLoop=1;jettySize=auto;html=1;entryX=0;entryY=0.5;entryDx=0;entryDy=0;" edge="1" parent="1" source="cZts-r7HTPAZpy25Qah7-106" target="cZts-r7HTPAZpy25Qah7-98">
          <mxGeometry relative="1" as="geometry" />
        </mxCell>
        <mxCell id="cZts-r7HTPAZpy25Qah7-106" value="SSS SDK" style="rounded=1;whiteSpace=wrap;html=1;" vertex="1" parent="1">
          <mxGeometry x="30" y="2305" width="120" height="60" as="geometry" />
        </mxCell>
        <mxCell id="cZts-r7HTPAZpy25Qah7-107" value="Sender" style="text;html=1;align=center;verticalAlign=middle;whiteSpace=wrap;rounded=0;" vertex="1" parent="1">
          <mxGeometry x="60" y="2230" width="60" height="30" as="geometry" />
        </mxCell>
        <mxCell id="cZts-r7HTPAZpy25Qah7-108" value="Secure Storage Service&amp;nbsp;" style="text;html=1;align=center;verticalAlign=middle;whiteSpace=wrap;rounded=0;" vertex="1" parent="1">
          <mxGeometry x="390" y="2230" width="170" height="30" as="geometry" />
        </mxCell>
        <mxCell id="cZts-r7HTPAZpy25Qah7-109" value="" style="rounded=1;whiteSpace=wrap;html=1;" vertex="1" parent="1">
          <mxGeometry x="830" y="2210" width="180" height="250" as="geometry" />
        </mxCell>
        <mxCell id="cZts-r7HTPAZpy25Qah7-110" style="edgeStyle=orthogonalEdgeStyle;rounded=0;orthogonalLoop=1;jettySize=auto;html=1;entryX=1;entryY=0.5;entryDx=0;entryDy=0;" edge="1" parent="1" source="cZts-r7HTPAZpy25Qah7-111" target="cZts-r7HTPAZpy25Qah7-98">
          <mxGeometry relative="1" as="geometry" />
        </mxCell>
        <mxCell id="cZts-r7HTPAZpy25Qah7-111" value="SSS SDK" style="rounded=1;whiteSpace=wrap;html=1;" vertex="1" parent="1">
          <mxGeometry x="860" y="2305" width="120" height="60" as="geometry" />
        </mxCell>
        <mxCell id="cZts-r7HTPAZpy25Qah7-112" value="Receiver" style="text;html=1;align=center;verticalAlign=middle;whiteSpace=wrap;rounded=0;" vertex="1" parent="1">
          <mxGeometry x="890" y="2230" width="60" height="30" as="geometry" />
        </mxCell>
        <mxCell id="cZts-r7HTPAZpy25Qah7-113" style="edgeStyle=orthogonalEdgeStyle;rounded=0;orthogonalLoop=1;jettySize=auto;html=1;exitX=0.5;exitY=1;exitDx=0;exitDy=0;" edge="1" parent="1">
          <mxGeometry relative="1" as="geometry">
            <mxPoint x="520" y="2580" as="sourcePoint" />
            <mxPoint x="520" y="2580" as="targetPoint" />
          </mxGeometry>
        </mxCell>
        <mxCell id="cZts-r7HTPAZpy25Qah7-115" value="Data manager Library&amp;nbsp;" style="shape=module;align=left;spacingLeft=20;align=center;verticalAlign=top;whiteSpace=wrap;html=1;" vertex="1" parent="1">
          <mxGeometry x="602.5" y="2365" width="130" height="55" as="geometry" />
        </mxCell>
        <mxCell id="cZts-r7HTPAZpy25Qah7-117" value="Encryption Component" style="shape=module;align=left;spacingLeft=20;align=center;verticalAlign=top;whiteSpace=wrap;html=1;" vertex="1" parent="1">
          <mxGeometry x="397.5" y="2365" width="130" height="55" as="geometry" />
        </mxCell>
        <mxCell id="cZts-r7HTPAZpy25Qah7-119" value="&lt;font style=&quot;font-size: 18px;&quot;&gt;Secure Storage Service Encryption And Decryption&amp;nbsp;&lt;/font&gt;" style="text;html=1;align=center;verticalAlign=middle;whiteSpace=wrap;rounded=0;fontStyle=1" vertex="1" parent="1">
          <mxGeometry x="285" y="2140" width="465" height="30" as="geometry" />
        </mxCell>
        <mxCell id="cZts-r7HTPAZpy25Qah7-121" style="edgeStyle=orthogonalEdgeStyle;rounded=0;orthogonalLoop=1;jettySize=auto;html=1;entryX=0.165;entryY=0.513;entryDx=0;entryDy=0;entryPerimeter=0;" edge="1" parent="1" source="cZts-r7HTPAZpy25Qah7-117" target="cZts-r7HTPAZpy25Qah7-115">
          <mxGeometry relative="1" as="geometry" />
        </mxCell>
        <mxCell id="cZts-r7HTPAZpy25Qah7-123" value="Controller" style="rounded=1;whiteSpace=wrap;html=1;" vertex="1" parent="1">
          <mxGeometry x="210" y="1617.5" width="110" height="60" as="geometry" />
        </mxCell>
        <mxCell id="cZts-r7HTPAZpy25Qah7-125" style="edgeStyle=orthogonalEdgeStyle;rounded=0;orthogonalLoop=1;jettySize=auto;html=1;entryX=0.063;entryY=0.549;entryDx=0;entryDy=0;entryPerimeter=0;" edge="1" parent="1" source="cZts-r7HTPAZpy25Qah7-123" target="cZts-r7HTPAZpy25Qah7-63">
          <mxGeometry relative="1" as="geometry">
            <Array as="points">
              <mxPoint x="265" y="1725" />
            </Array>
          </mxGeometry>
        </mxCell>
        <mxCell id="cZts-r7HTPAZpy25Qah7-128" value="Controller" style="rounded=1;whiteSpace=wrap;html=1;" vertex="1" parent="1">
          <mxGeometry x="270" y="2275" width="110" height="60" as="geometry" />
        </mxCell>
        <mxCell id="cZts-r7HTPAZpy25Qah7-129" style="edgeStyle=orthogonalEdgeStyle;rounded=0;orthogonalLoop=1;jettySize=auto;html=1;entryX=0.068;entryY=0.585;entryDx=0;entryDy=0;entryPerimeter=0;" edge="1" parent="1" source="cZts-r7HTPAZpy25Qah7-128" target="cZts-r7HTPAZpy25Qah7-117">
          <mxGeometry relative="1" as="geometry">
            <Array as="points">
              <mxPoint x="320" y="2397" />
            </Array>
          </mxGeometry>
        </mxCell>
      </root>
    </mxGraphModel>
  </diagram>
</mxfile>
